%TF.GenerationSoftware,KiCad,Pcbnew,10.0.6*%
%TF.CreationDate,2026-10-07T20:09:19+01:00*%
%TF.ProjectId,starbie,73746172-6269-4652-9e6b-696361645f70,rev?*%
%TF.SameCoordinates,Original*%
%TF.FileFunction,Soldermask,Bot*%
%TF.FilePolarity,Negative*%
%FSLAX46Y46*%
G04 Gerber Fmt 4.6, Leading zero omitted, Abs format (unit mm)*
G04 Created by KiCad (PCBNEW 10.0.6) date 2026-10-07 20:09:19*
%MOMM*%
%LPD*%
G01*
G04 APERTURE LIST*
G04 Aperture macros list*
%AMRoundRect*
0 Rectangle with rounded corners*
0 $1 Rounding radius*
0 $2 $3 $4 $5 $6 $7 $8 $9 X,Y pos of 4 corners*
0 Add a 4 corners polygon primitive as box body*
4,1,4,$2,$3,$4,$5,$6,$7,$8,$9,$2,$3,0*
0 Add four circle primitives for the rounded corners*
1,1,$1+$1,$2,$3*
1,1,$1+$1,$4,$5*
1,1,$1+$1,$6,$7*
1,1,$1+$1,$8,$9*
0 Add four rect primitives between the rounded corners*
20,1,$1+$1,$2,$3,$4,$5,0*
20,1,$1+$1,$4,$5,$6,$7,0*
20,1,$1+$1,$6,$7,$8,$9,0*
20,1,$1+$1,$8,$9,$2,$3,0*%
G04 Aperture macros list end*
%ADD10R,2.000000X2.000000*%
%ADD11C,2.000000*%
%ADD12C,1.400000*%
%ADD13R,1.500000X1.500000*%
%ADD14C,1.500000*%
%ADD15R,1.524000X1.524000*%
%ADD16C,1.524000*%
%ADD17O,3.800000X2.900000*%
%ADD18R,1.700000X1.700000*%
%ADD19O,1.700000X1.700000*%
%ADD20RoundRect,0.250000X-0.550000X-0.550000X0.550000X-0.550000X0.550000X0.550000X-0.550000X0.550000X0*%
%ADD21C,1.600000*%
%ADD22R,3.200000X2.000000*%
G04 APERTURE END LIST*
D10*
%TO.C,BZ1*%
X134239300Y-108760800D03*
D11*
X141839300Y-108760800D03*
%TD*%
D12*
%TO.C,R1*%
X161539300Y-83450800D03*
X161539300Y-91070800D03*
%TD*%
D13*
%TO.C,U2*%
X147119300Y-66760800D03*
D14*
X144579300Y-66760800D03*
X142039300Y-66760800D03*
X139499300Y-66760800D03*
%TD*%
D15*
%TO.C,J1*%
X120929300Y-75410800D03*
D16*
X118389300Y-75410800D03*
X115849300Y-75410800D03*
X113309300Y-75410800D03*
X110769300Y-75410800D03*
X108229300Y-75410800D03*
X105689300Y-75410800D03*
X103149300Y-75410800D03*
%TD*%
D12*
%TO.C,R2*%
X162229300Y-95760800D03*
X169849300Y-95760800D03*
%TD*%
D11*
%TO.C,SW2*%
X164789300Y-103010800D03*
X171289300Y-103010800D03*
X164789300Y-107510800D03*
X171289300Y-107510800D03*
%TD*%
D17*
%TO.C,J2*%
X131633300Y-74395800D03*
X131633300Y-97509800D03*
X153985300Y-74395800D03*
X153985300Y-97509800D03*
D18*
X138999300Y-73760800D03*
D19*
X141539300Y-73760800D03*
X144079300Y-73760800D03*
X146619300Y-73760800D03*
%TD*%
D12*
%TO.C,R3*%
X161539300Y-80070800D03*
X161539300Y-72450800D03*
%TD*%
D20*
%TO.C,C2*%
X199886600Y-76260800D03*
D21*
X203386600Y-76260800D03*
%TD*%
D11*
%TO.C,SW1*%
X151289300Y-106510800D03*
X157789300Y-106510800D03*
X151289300Y-111010800D03*
X157789300Y-111010800D03*
%TD*%
D10*
%TO.C,SW3*%
X110789300Y-98260800D03*
D11*
X110789300Y-103260800D03*
X110789300Y-100760800D03*
D22*
X118289300Y-95160800D03*
X118289300Y-106360800D03*
D11*
X125289300Y-103260800D03*
X125289300Y-98260800D03*
%TD*%
M02*
