%TF.GenerationSoftware,KiCad,Pcbnew,10.0.6*%
%TF.CreationDate,2026-10-07T20:09:19+01:00*%
%TF.ProjectId,starbie,73746172-6269-4652-9e6b-696361645f70,rev?*%
%TF.SameCoordinates,Original*%
%TF.FileFunction,Profile,NP*%
%FSLAX46Y46*%
G04 Gerber Fmt 4.6, Leading zero omitted, Abs format (unit mm)*
G04 Created by KiCad (PCBNEW 10.0.6) date 2026-10-07 20:09:19*
%MOMM*%
%LPD*%
G01*
G04 APERTURE LIST*
%TA.AperFunction,Profile*%
%ADD10C,0.076385*%
%TD*%
G04 APERTURE END LIST*
D10*
X106374322Y-108218605D02*
X123942961Y-118912557D01*
X123942961Y-118912557D02*
X139983885Y-131898071D01*
X139983885Y-131898071D02*
X143039300Y-132661924D01*
X146094715Y-131898071D02*
X143039300Y-132661924D01*
X162135639Y-118912557D02*
X146094715Y-131898071D01*
X71237053Y-73845187D02*
X80403298Y-82247581D01*
X72000904Y-71553630D02*
X71237053Y-73845187D01*
X80403298Y-82247581D02*
X95680371Y-82247581D01*
X81167150Y-85302995D02*
X90333393Y-93705385D01*
X81931004Y-83775288D02*
X81167150Y-85302995D01*
X90333393Y-93705385D02*
X97971932Y-93705385D01*
X92624957Y-96760800D02*
X103318908Y-105927042D01*
X93388811Y-95233093D02*
X92624957Y-96760800D01*
X95680371Y-82247581D02*
X95680371Y-83775288D01*
X95680371Y-83775288D02*
X81931004Y-83775288D01*
X97971932Y-93705385D02*
X97971932Y-95233093D01*
X97971932Y-95233093D02*
X93388811Y-95233093D01*
X103318908Y-105927042D02*
X106374322Y-105927042D01*
X106374322Y-105927042D02*
X106374322Y-108218605D01*
X117068273Y-71553630D02*
X72000904Y-71553630D01*
X125470664Y-60859676D02*
X117068273Y-71553630D01*
X144567007Y-60859676D02*
X125470664Y-60859676D01*
X144567007Y-60859676D02*
X160607936Y-60859676D01*
X160607936Y-60859676D02*
X169010327Y-71553630D01*
X169010327Y-71553630D02*
X214077696Y-71553630D01*
X179704278Y-105927042D02*
X179704278Y-108218605D01*
X179704278Y-108218605D02*
X162135639Y-118912557D01*
X182759692Y-105927042D02*
X179704278Y-105927042D01*
X188106668Y-93705385D02*
X188106668Y-95233093D01*
X188106668Y-95233093D02*
X192689789Y-95233093D01*
X190398229Y-82247581D02*
X190398229Y-83775288D01*
X190398229Y-83775288D02*
X204147596Y-83775288D01*
X192689789Y-95233093D02*
X193453643Y-96760800D01*
X193453643Y-96760800D02*
X182759692Y-105927042D01*
X195745207Y-93705385D02*
X188106668Y-93705385D01*
X204147596Y-83775288D02*
X204911450Y-85302995D01*
X204911450Y-85302995D02*
X195745207Y-93705385D01*
X205675302Y-82247581D02*
X190398229Y-82247581D01*
X214077696Y-71553630D02*
X214841547Y-73845187D01*
X214841547Y-73845187D02*
X205675302Y-82247581D01*
M02*
