%TF.GenerationSoftware,KiCad,Pcbnew,10.0.6*%
%TF.CreationDate,2026-10-07T20:09:18+01:00*%
%TF.ProjectId,starbie,73746172-6269-4652-9e6b-696361645f70,rev?*%
%TF.SameCoordinates,Original*%
%TF.FileFunction,Paste,Top*%
%TF.FilePolarity,Positive*%
%FSLAX46Y46*%
G04 Gerber Fmt 4.6, Leading zero omitted, Abs format (unit mm)*
G04 Created by KiCad (PCBNEW 10.0.6) date 2026-10-07 20:09:18*
%MOMM*%
%LPD*%
G01*
G04 APERTURE LIST*
G04 Aperture macros list*
%AMRoundRect*
0 Rectangle with rounded corners*
0 $1 Rounding radius*
0 $2 $3 $4 $5 $6 $7 $8 $9 X,Y pos of 4 corners*
0 Add a 4 corners polygon primitive as box body*
4,1,4,$2,$3,$4,$5,$6,$7,$8,$9,$2,$3,0*
0 Add four circle primitives for the rounded corners*
1,1,$1+$1,$2,$3*
1,1,$1+$1,$4,$5*
1,1,$1+$1,$6,$7*
1,1,$1+$1,$8,$9*
0 Add four rect primitives between the rounded corners*
20,1,$1+$1,$2,$3,$4,$5,0*
20,1,$1+$1,$4,$5,$6,$7,0*
20,1,$1+$1,$6,$7,$8,$9,0*
20,1,$1+$1,$8,$9,$2,$3,0*%
G04 Aperture macros list end*
%ADD10RoundRect,0.090000X-0.660000X-0.360000X0.660000X-0.360000X0.660000X0.360000X-0.660000X0.360000X0*%
%ADD11RoundRect,0.250000X-0.500000X-0.500000X0.500000X-0.500000X0.500000X0.500000X-0.500000X0.500000X0*%
%ADD12RoundRect,0.500000X-1.000000X-0.500000X1.000000X-0.500000X1.000000X0.500000X-1.000000X0.500000X0*%
%ADD13RoundRect,0.250000X-0.900000X-0.400000X0.900000X-0.400000X0.900000X0.400000X-0.900000X0.400000X0*%
%ADD14C,1.300000*%
G04 APERTURE END LIST*
D10*
%TO.C,D6*%
X101089300Y-96610800D03*
X101089300Y-99910800D03*
X105989300Y-99910800D03*
X105989300Y-96610800D03*
%TD*%
D11*
%TO.C,U1*%
X179369300Y-81400800D03*
X179369300Y-83400800D03*
X181369300Y-81400800D03*
X181369300Y-83400800D03*
D12*
X169769300Y-74180800D03*
X169769300Y-76720800D03*
X169769300Y-79260800D03*
X169769299Y-81800800D03*
X169769300Y-84340800D03*
X169769300Y-86880800D03*
X169769300Y-89420800D03*
X186769300Y-89420800D03*
X186769300Y-86880800D03*
X186769300Y-84340800D03*
X186769301Y-81800800D03*
X186769300Y-79260800D03*
X186769300Y-76720800D03*
X186769300Y-74180800D03*
D13*
X173769300Y-81400800D03*
X173769300Y-79500800D03*
D14*
X176999300Y-73180800D03*
X176999299Y-75760800D03*
X176999300Y-78300800D03*
X179539300Y-78300800D03*
X179539301Y-75760800D03*
X179539300Y-73180800D03*
%TD*%
D10*
%TO.C,D1*%
X178039300Y-97360800D03*
X178039300Y-100660800D03*
X182939300Y-100660800D03*
X182939300Y-97360800D03*
%TD*%
%TO.C,D4*%
X126589300Y-63610800D03*
X126589300Y-66910800D03*
X131489300Y-66910800D03*
X131489300Y-63610800D03*
%TD*%
%TO.C,D2*%
X192589300Y-86610800D03*
X192589300Y-89910800D03*
X197489300Y-89910800D03*
X197489300Y-86610800D03*
%TD*%
%TO.C,D3*%
X154589300Y-64110800D03*
X154589300Y-67410800D03*
X159489300Y-67410800D03*
X159489300Y-64110800D03*
%TD*%
%TO.C,D5*%
X90639300Y-86460800D03*
X90639300Y-89760800D03*
X95539300Y-89760800D03*
X95539300Y-86460800D03*
%TD*%
M02*
