M48
; DRILL file KiCad 10.0.6 date 2026-10-07T20:10:03
; FORMAT={-:-/ absolute / metric / decimal}
; #@! TF.CreationDate,2026-10-07T20:10:03+01:00
; #@! TF.GenerationSoftware,Kicad,Pcbnew,10.0.6
; #@! TF.FileFunction,Plated,1,2,PTH
FMAT,2
METRIC
; #@! TA.AperFunction,Plated,PTH,ViaDrill
T1C0.300
; #@! TA.AperFunction,Plated,PTH,ComponentDrill
T2C0.700
; #@! TA.AperFunction,Plated,PTH,ComponentDrill
T3C0.762
; #@! TA.AperFunction,Plated,PTH,ComponentDrill
T4C0.800
; #@! TA.AperFunction,Plated,PTH,ComponentDrill
T5C1.000
; #@! TA.AperFunction,Plated,PTH,ComponentDrill
T6C1.100
; #@! TA.AperFunction,Plated,PTH,ComponentDrill
T7C1.500
%
G90
G05
T1
X93.772Y-87.498
X101.099Y-90.729
X101.787Y-95.513
X107.428Y-85.481
X121.75Y-67.876
X127.624Y-62.578
X155.721Y-62.894
X160.475Y-65.096
X167.482Y-76.721
X167.679Y-83.444
X168.032Y-80.533
X171.538Y-83.038
X171.852Y-89.655
X176.683Y-98.248
X177.027Y-96.348
X177.879Y-88.576
X180.593Y-79.27
X183.934Y-99.669
X184.693Y-86.401
X188.84Y-76.785
X191.602Y-90.898
X194.609Y-88.93
T2
X161.539Y-72.451
X161.539Y-80.071
X161.539Y-83.451
X161.539Y-91.071
X162.229Y-95.761
X169.849Y-95.761
T3
X103.149Y-75.411
X105.689Y-75.411
X108.229Y-75.411
X110.769Y-75.411
X113.309Y-75.411
X115.849Y-75.411
X118.389Y-75.411
X120.929Y-75.411
T4
X139.499Y-66.761
X142.039Y-66.761
X144.579Y-66.761
X147.119Y-66.761
X199.887Y-76.261
X203.387Y-76.261
T5
X110.789Y-98.261
X110.789Y-100.761
X110.789Y-103.261
X125.289Y-98.261
X125.289Y-103.261
X134.239Y-108.761
X138.999Y-73.761
X141.539Y-73.761
X141.839Y-108.761
X144.079Y-73.761
X146.619Y-73.761
T6
X151.289Y-106.511
X151.289Y-111.011
X157.789Y-106.511
X157.789Y-111.011
X164.789Y-103.011
X164.789Y-107.511
X171.289Y-103.011
X171.289Y-107.511
T7
G00X117.639Y-95.161
M15
G01X118.939Y-95.161
M16
G05
G00X117.639Y-106.361
M15
G01X118.939Y-106.361
M16
G05
M30
